<svg xmlns="http://www.w3.org/2000/svg" viewBox="0 0 437.33 512"><defs><style>.cls-1{fill:#c8a20f;}</style></defs><title>am-logo-yellow</title><g id="Layer_2" data-name="Layer 2"><g id="Capa_1" data-name="Capa 1"><path class="cls-1" d="M314.64,0c-27.29,1.89-59.2,19.36-77.79,42.11-17,20.64-30.91,51.3-25.47,81.09,29.82.93,60.64-17,78.5-40.1C306.58,61.57,319.22,31.1,314.64,0Z"/><path class="cls-1" d="M422.52,171.78c-26.21-32.87-63-51.94-97.83-51.94-45.92,0-65.34,22-97.25,22-32.89,0-57.88-21.92-97.6-21.92-39,0-80.54,23.84-106.88,64.61-37,57.41-30.68,165.35,29.32,257.28,21.47,32.9,50.14,69.89,87.64,70.21,33.38.32,42.79-21.41,88-21.63s53.8,21.92,87.11,21.57c37.53-.29,67.77-41.28,89.25-74.18,15.39-23.58,21.12-35.46,33.05-62.08C350.52,342.62,336.6,219.17,422.52,171.78Z"/></g></g></svg>