<svg xmlns="http://www.w3.org/2000/svg" viewBox="0 0 445.98 353.65"><defs><style>.cls-1{fill:#c8a20f;}</style></defs><title>bandcamp-logo-yellow</title><g id="Layer_2" data-name="Layer 2"><g id="Capa_1" data-name="Capa 1"><path class="cls-1" d="M18.33,297a13.55,13.55,0,0,0-11.48,6.16H6.7V283.28H0v54.63H6.32v-5h.15a11.89,11.89,0,0,0,11,6.08c13.54,0,17.5-12.7,17.5-22.21C34.92,305.65,28.91,297,18.33,297Zm-1.06,36.29c-4.26,0-10.88-2.82-10.88-13.4,0-6.46,1.06-16.88,10.73-16.88C27.46,303,28,312.8,28,317.9,28,326.64,24.57,333.27,17.27,333.27Z"/><path class="cls-1" d="M70,331V308.09C70,297.89,58.42,297,55.23,297c-9.81,0-16.13,3.72-16.43,13.24H45c.46-3.05,1.52-7.69,9.13-7.69,6.31,0,9.35,2.28,9.35,6.47,0,3.95-1.9,4.56-3.5,4.71l-11,1.37c-11.1,1.37-12.09,9.13-12.09,12.48C36.82,334.4,42,339,49.29,339a18.11,18.11,0,0,0,14.38-6.46c.23,3,1.14,6.08,7.07,6.08a12.26,12.26,0,0,0,3.66-.76V333a12,12,0,0,1-2.21.31C70.82,333.34,70,332.65,70,331Zm-6.7-6.85c0,5.33-6.08,9.36-12.32,9.36-5,0-7.23-2.59-7.23-6.92,0-5,5.25-6,8.52-6.47,8.29-1.07,10-1.67,11-2.51v6.54Z"/><path class="cls-1" d="M96,297a14.47,14.47,0,0,0-12,6.76h-.15v-5.62H77.52V337.9h6.69V316.22c0-10.8,6.7-13.23,10.5-13.23,6.54,0,8.52,3.5,8.52,10.42V337.9h6.7V310.82C109.93,299.48,102.17,297,96,297Z"/><path class="cls-1" d="M142.33,303.74h-.15c-1.6-2.27-4.64-6.76-11.87-6.76-10.57,0-16.58,8.67-16.58,19.86,0,9.5,4,22.21,17.5,22.21,3.88,0,8.44-1.22,11.33-6.63h.16v5.49H149V283.29h-6.69v20.45Zm-11,29.53c-7.31,0-10.73-6.63-10.73-15.37,0-5.1.53-14.91,10.88-14.91,9.66,0,10.73,10.42,10.73,16.88C142.26,330.45,135.64,333.27,131.38,333.27Z"/><path class="cls-1" d="M173,303c5.63,0,8.6,3.19,9.43,8.52h6.47C188.36,304.59,184.4,297,174,297c-13.16,0-19.09,9.81-19.09,22.13,0,11.49,6.61,19.93,17.79,19.93,11.65,0,15.53-8.9,16.21-15.21h-6.47c-1.14,6.08-5,9.43-9.5,9.43-9.21,0-10.88-8.45-10.88-15.29C162,310.9,164.7,303,173,303Z"/><path class="cls-1" d="M222.74,331V308.09c0-10.2-11.56-11.11-14.76-11.11-9.81,0-16.12,3.72-16.43,13.24h6.16c.46-3.05,1.52-7.69,9.13-7.69,6.31,0,9.36,2.28,9.36,6.47,0,3.95-1.91,4.56-3.5,4.71l-11,1.37c-11.11,1.37-12.1,9.13-12.1,12.48,0,6.84,5.17,11.48,12.48,11.48a18.07,18.07,0,0,0,14.37-6.46c.23,3,1.14,6.08,7.08,6.08a12.19,12.19,0,0,0,3.65-.76V333a12.07,12.07,0,0,1-2.2.31C223.58,333.34,222.74,332.65,222.74,331Zm-6.7-6.85c0,5.33-6.08,9.36-12.32,9.36-5,0-7.23-2.59-7.23-6.92,0-5,5.25-6,8.52-6.47,8.3-1.07,10-1.67,11-2.51v6.54Z"/><path class="cls-1" d="M271.5,297c-6.16,0-8.82,2.73-12.17,6.46-1.14-2.13-3.42-6.46-10.57-6.46a14,14,0,0,0-12,6.76h-.15v-5.62h-6.31V337.9H237V316.22c0-10.8,6.69-13.23,10.49-13.23,4.95,0,6.24,4,6.24,7.37V337.9h6.7V313.64c0-5.33,3.73-10.66,9.36-10.66s7.37,3.73,7.37,9.21V337.9h6.69V310.36C283.82,299.18,275.76,297,271.5,297Z"/><path class="cls-1" d="M307.63,297c-7.22,0-10.26,4.49-11.86,6.76h-.15v-5.62H289.3v55.53H296V333.72h.15c1.75,2.81,5.25,5.32,10.57,5.32,13.54,0,17.5-12.7,17.5-22.21C324.22,305.65,318.21,297,307.63,297Zm-1.06,36.29c-4.26,0-10.87-2.82-10.87-13.4,0-6.46,1.06-16.88,10.72-16.88,10.35,0,10.88,9.81,10.88,14.91C317.3,326.64,313.87,333.27,306.57,333.27Z"/><path class="cls-1" d="M147.67,254.67c25.55,0,37.53-23.17,37.53-53.78,0-17.83-1.86-52.18-38.06-52.18-33.82,0-37.54,36.48-37.54,59.1C109.6,244.81,132.76,254.67,147.67,254.67Z"/><path class="cls-1" d="M446,0H124.89L88,79.75h22.63v69.49h.54c10.11-14.64,24-21.3,40.19-21.56,37,0,58,30.35,58,69.48,0,26.79-9,60.81-37.22,73h89.68c-23.88-9.82-37.44-34.31-37.44-65.07,0-43.12,20.76-77.46,66.81-77.46,36.48,0,50.32,26.62,52.18,50.85H320.81c-2.92-18.64-13.31-29.82-33-29.82-29,0-38.33,27.68-38.33,52.44,0,24,5.86,53.52,38.08,53.52,15.7,0,29.27-11.72,33.26-33h22.63l0,.28Z"/><path class="cls-1" d="M321.09,270.21l4.32-9.34a48.42,48.42,0,0,1-14.22,9.34Z"/><polygon class="cls-1" points="87.23 81.48 0 270.21 87.23 270.21 87.23 81.48"/><path class="cls-1" d="M109.34,270.21H127c-9.13-4.65-14.12-11.78-17.12-16.61h-.53Z"/></g></g></svg>