<svg xmlns="http://www.w3.org/2000/svg" viewBox="0 0 638.92 396.04"><title>beatport</title><g id="Layer_2" data-name="Layer 2"><g id="Layer_1-2" data-name="Layer 1"><path d="M320.25,0c61.77,1.14,114.48,22.13,159,63.46,92.14,85.55,97.19,233.41,11.13,325.23-7,7.45-14.8,7.89-22.3,1s-14.59-13.66-21.86-20.51c-8.66-8.16-9-15.35-1-24.16,22.63-25,37.05-54.14,41.8-87.45,7.64-53.64-6.34-101.41-43.57-140.94C353.77,21.47,196.58,58.22,159,183.46c-17.58,58.66-4.88,112.24,34.51,159.3,1.39,1.66,3,3.17,4.3,4.87,4.78,6.08,4.69,13.69-.75,19-8.43,8.3-17,16.44-25.83,24.32-6.23,5.58-14.25,4.73-20.43-1.89-21.65-23.18-38.49-49.52-48.36-79.65-28.74-87.7-12.93-167.06,49-235.42,43-47.48,98.15-71.41,162.4-73.7C316.35.24,318.84.07,320.25,0Z"/><path d="M1.42,226.57A306,306,0,0,1,14.29,142c3.88-13,10-16.15,22.86-12.19Q51,134,64.76,138.43c9.4,3,13.11,10,10.37,19.42Q44.89,261.74,98.38,355.78c4.92,8.64,3,16.07-5.55,21.23s-17.38,10.48-26.1,15.67c-9.68,5.76-17.31,3.84-23-6C25.4,355.21,12.37,321.64,6.53,285.66,3.36,266.18,2.11,246.39,0,226.73Z"/><path d="M638.81,230.8q.29,84-42.17,156.54c-5.3,9.07-12.86,11.11-21.88,5.83S557,382.65,548.18,377.32s-10.9-12.76-5.75-21.6a248.05,248.05,0,0,0,24.23-194.64,31.16,31.16,0,0,1-1.3-12.17c.6-4.88,4.13-8.33,8.91-9.87,11.08-3.58,22.16-7.17,33.34-10.39,8.07-2.33,15.32,1.86,17.91,10.17a298.83,298.83,0,0,1,13.24,73.51C639.08,218.47,638.81,224.64,638.81,230.8Z"/></g></g></svg>