<svg xmlns="http://www.w3.org/2000/svg" viewBox="0 0 512 288"><defs><style>.cls-1{fill:#c8a20f;}</style></defs><title>sc-logo-yellow</title><g id="Layer_2" data-name="Layer 2"><g id="Capa_1" data-name="Capa 1"><path class="cls-1" d="M432,128a79.7,79.7,0,0,0-16.67,1.76C408.13,57,346.59,0,272,0a16,16,0,0,0-16,16V272a16,16,0,0,0,16,16H432a80,80,0,0,0,0-160Z"/><path class="cls-1" d="M208,32a16,16,0,0,0-16,16V272a16,16,0,0,0,32,0V48A16,16,0,0,0,208,32Z"/><path class="cls-1" d="M144,96a16,16,0,0,0-16,16V272a16,16,0,0,0,32,0V112A16,16,0,0,0,144,96Z"/><path class="cls-1" d="M80,96a16,16,0,0,0-16,16V272a16,16,0,0,0,32,0V112A16,16,0,0,0,80,96Z"/><path class="cls-1" d="M16,144A16,16,0,0,0,0,160v96a16,16,0,0,0,32,0V160A16,16,0,0,0,16,144Z"/></g></g></svg>