<svg xmlns="http://www.w3.org/2000/svg" viewBox="0 0 186.85 186.84"><defs><style>.cls-1{fill:#c8a20f;}</style></defs><title>spotify-logo-yellow</title><g id="Layer_2" data-name="Layer 2"><g id="Capa_1" data-name="Capa 1"><path class="cls-1" d="M128.88,121c-31.1-14.37-74.62-8-76.46-7.74a7.5,7.5,0,0,0,2.24,14.84c.41-.07,40.87-6,67.92,6.52a7.5,7.5,0,1,0,6.3-13.62Z"/><path class="cls-1" d="M137.61,94c-35.31-16.32-84.83-9.08-86.92-8.77A7.5,7.5,0,0,0,52.93,100c.46-.07,47.2-6.85,78.39,7.56A7.5,7.5,0,1,0,137.61,94Z"/><path class="cls-1" d="M143.49,65.74c-39-18-93.79-10-96.1-9.68a7.5,7.5,0,0,0,2.23,14.83c.53-.08,52.7-7.66,87.58,8.46a7.5,7.5,0,0,0,6.29-13.61Z"/><path class="cls-1" d="M93.42,0a93.42,93.42,0,1,0,93.43,93.42A93.53,93.53,0,0,0,93.42,0Zm0,171.84a78.42,78.42,0,1,1,78.43-78.42A78.51,78.51,0,0,1,93.42,171.84Z"/></g></g></svg>